# xmcd CD database file generated by Grip 3.3.1
# 
# Track frame offsets:
#       150
#       13631
#       31793
#       47260
#       71485
#       91926
#       107871
#       129617
#       155294
#       171176
# 
# Disc length: 2525 seconds
# 
# Revision: 1
# Processed by: cddbd v1.5.1PL2 Copyright (c) Steve Scherf et al.
# Submitted via: Grip 3.3.1
# 
DISCID=7209db0a
DTITLE=Skidmore Fountain - songs on the book of departure
DYEAR=2004
DGENRE=Jazz
TTITLE0=this year in review
TTITLE1=jump rope
TTITLE2=marques de caceres
TTITLE3=now you have to go
TTITLE4=disarray
TTITLE5=departure
TTITLE6=rebecca sobs
TTITLE7=senseless
TTITLE8=miles to miles
TTITLE9=tucson away
EXTD=
EXTT0=
EXTT1=
EXTT2=
EXTT3=
EXTT4=
EXTT5=
EXTT6=
EXTT7=
EXTT8=
EXTT9=
PLAYORDER=
